<svg xmlns="http://www.w3.org/2000/svg" viewBox="0 0 512 512" style="height: 512px; width: 512px;"><defs><filter id="shadow-1" height="300%" width="300%" x="-100%" y="-100%"><feFlood flood-color="rgba(0, 0, 0, 1)" result="flood"></feFlood><feComposite in="flood" in2="SourceGraphic" operator="atop" result="composite"></feComposite><feGaussianBlur in="composite" stdDeviation="6" result="blur"></feGaussianBlur><feOffset dx="0" dy="0" result="offset"></feOffset><feComposite in="SourceGraphic" in2="offset" operator="over"></feComposite></filter></defs><path d="M0 0h512v512H0z" fill="url(#pattern)" fill-opacity="1"></path><svg><defs><filter id="b" x="-.024" width="1.048" y="-.024" height="1.048" color-interpolation-filters="sRGB"><feGaussianBlur stdDeviation="4.823"></feGaussianBlur></filter><filter id="a" x="-.012" width="1.024" y="-.012" height="1.024" color-interpolation-filters="sRGB"><feGaussianBlur stdDeviation="2.55"></feGaussianBlur></filter><filter id="c" x="-.112" width="1.225" y="-.077" height="1.153" color-interpolation-filters="sRGB"><feGaussianBlur stdDeviation="15.63"></feGaussianBlur></filter><filter id="e" x="-.237" width="1.475" y="-.249" height="1.497" color-interpolation-filters="sRGB"><feGaussianBlur stdDeviation="18.7"></feGaussianBlur></filter><filter id="d" x="-.213" width="1.426" y="-.151" height="1.303" color-interpolation-filters="sRGB"><feGaussianBlur stdDeviation="18.7"></feGaussianBlur></filter></defs><path d="M196.6 1.207c-2.5 11.323-4.8 22.703-10.2 33.383-7-10.68-12.6-20.91-16.7-31.988L2.494 4.338C13 104.9 10.86 175.3 1.979 278.3L15.4 295.5l-9.494 6.3L2.6 462.7l1.019 45.9 112.681 3.1c3.6-16.1 6.5-32.5 13.2-47.3 4.5 14.4 5.7 29.4 7 44.4l160 .3c.8-6.1.7-8.1 2.3-14.4 5.1 4.5 7.8 9.5 10.6 14.5.8-10.1 3.9-19.8 7-29.5 4.8 9.2 6.7 19.4 8.8 29.5l185.2.4-4.6-78.2-21.4-8.2 21.3-4.9 5.8-395.47c-7-6.73-13.3-13.744-18-21.465l-15.1.114-2.1 20.321-1.4 47.23.8 84.87-8.6-97.14c9.3-16.86 2.2-39.69 5.7-55.239-92.1 1.696-184.1.685-276.2-.314z" overflow="visible" color="#000" fill="#ebc893" fill-rule="evenodd" stroke="#e0aa58" enable-background="accumulate"></path><path d="M196.6 1.203c-2.5 11.327-4.8 22.707-10.2 33.387-7-10.68-12.6-20.91-16.7-31.99L2.494 4.336C13 104.9 10.86 175.3 1.979 278.3L15.4 295.5l-9.494 6.3L2.6 462.7l1.019 45.9 112.681 3.1c.5-2.1-7.9-2.3-7.4-4.5L5.244 504.5l-.914-47.3 4.63-153.7 12.42-9-13.093-16.8C16.95 177.3 16.36 104 6.113 5.992l162.687.164c4 10.804 10.3 24.254 17.1 34.664 5.3-10.41 9.5-25.97 12-37.02 89.8.974 173.8 3.521 263.6 1.867 4.6 1.226 10.6.431 11.3-4.149-92.1 1.696-184.1.684-276.2-.315zm296.9.158l-15.1.116-.6 6.277 13.5-2.557c4.6 7.533 9.7 12.383 16.6 18.943l-4.6 389.06-19.9 9.9 4.1-.6 18.2-4.2 5.8-395.47c-7-6.73-13.3-13.748-18-21.469zm9.6 435.739l3.5 69.7-177.7.1c.4 2.1-4.1.2-3.7 2.3l185.2.4-4.6-78.2zm-370 25.1c-1 2.2-2.9.4-3.7 2.6 4.2 14 5.8 29.5 7.1 44l158 .3c1.9-5 .8-9.7 4.3-14.4 5.1 4.5 7.8 9.5 10.6 14.5.8-10.1 3.9-19.8 7-29.5 1.8 3.4 3.2 7 4.3 10.6-1.4-5.6-2.4-8.3-5.1-13.4-3 9.4-6.7 16.2-7.5 26-2.7-4.9-5.4-9.7-10.4-14.1-3.4 4.6-6.2 9.1-8 14l-147.6 3.4c-3.4-14.6-7.1-30.3-9-44z" overflow="visible" color="#000" opacity=".527" fill="#c87137" fill-rule="evenodd" filter="url(#a)" enable-background="accumulate"></path><path fill="#f6e7d0" d="M200.1 16.1c-2.3 10.67-10.5 21.38-15.6 31.44-6.6-10.06-13.9-19.69-17.7-30.12L17.34 19.05C24.61 113.6 7.605 179.3 16.85 277l18.26 20.1L10.34 309l7.1 141.6.96 43.3 90.2 3.4c3.4-15.2 15-35.6 21.3-49.6 4.3 13.6 15.4 36.7 16.6 50.9l45.1.8 13.8-18.7 14.4 22.2 68.7-8.6c1.8-4.7 4.5-9.1 7.8-13.5 4.8 4.2 7.4 8.9 10 13.6.8-9.5 7.7-19.6 10.6-28.7 4.5 8.6 19.9 28.9 33.1 33.9l114.6 5.6 22.3-14.7 19.4 14.7-14.5-67.6-34.6-14.2 37.5-15.1 2.1-96.9-14.5-21.9 15.2-13.4 5.1-239.63c-5.2-21.09-11.8-24.89-16.9-20.22l-4.2 2.11 2 19.14.7 44.47-7.1 124.23-18.3-137.78c8.8-15.88-3.9-35.38-.6-50.02-67.1 1.24-140.4-13.332-202.8-3.28-14 2.25-23.7 21.31-36.9 24.48-4.3 1.03-13.9-23.45-18.4-23.5z" color="#000" overflow="visible" enable-background="accumulate" filter="url(#b)" fill-rule="evenodd"></path><path d="M354 27.39l-70.3 96.91 46.4 97.6-56.2 43.6 33 74.4-30.2 63.2 69.8 48.8 31.6 29.5 31.6-13.3L365.9 335l55.5-36.5 2.1-146.1-56.9-101.83zM116.6 55.48L89.9 123.6s33.7 65.3 35.8 68.8c2.1 3.6-7 118-7 118l42.8 73.8s9.9-82.9 7.1-83.6c-2.8-.7-29.5-42.1-29.5-42.1l23.8-84.3-36.5-37.2z" color="#000" overflow="visible" fill="#f2dbb9" fill-rule="evenodd" filter="url(#c)" enable-background="accumulate"></path><path d="M39.33 172.1l-5.62 108.1L74.45 328 42.84 464.9l96.96-39.3 30.2 42.9 74.4-38.7-80.8-169.9-60.4-16.9z" overflow="visible" fill="#eed3a4" fill-rule="evenodd" color="#000" enable-background="accumulate" filter="url(#d)"></path><path d="M266.9 66.72L324.5 191 434 221.2l21.8-111.6-41.4-68.86z" color="#000" overflow="visible" fill="#eed3a4" fill-rule="evenodd" enable-background="accumulate" filter="url(#e)"></path></svg><g class="" transform="translate(0,0)" style=""><path d="M302.344 28.514c-2.386 1.354-4.334 3.497-6.273 7.182-2.335 4.438-4.28 10.836-5.94 18.29-3.316 14.91-5.51 33.828-12.098 51.26l-.54 1.43-.982 1.17c-53.308 63.59-92.07 98.36-119.014 148.817l-2.46 4.605-5.22.15s-10.63.322-22.607 2.46c-11.978 2.137-43.225 3.316-46.132 7.017-13.33 16.97-23.48 45.76-25.072 70.46-1.592 24.697 3.872 48.986 16.676 65.568.858 1.11 29.53 4.57 38.22 5.302 8.693.73 16.52.162 16.52.162l6.08-.457 2.678 5.48c14.83 30.325 61.456 50.595 110.937 66.056 4.384.248 11.962-1.82 20.852-6.295-19.818-7.57-35.37-14.03-52.5-23.087l-4.423-2.338-.347-4.99c-.896-12.814 5.672-23.273 13.61-30.256 2.54-2.237 5.24-4.216 7.985-6.038-1.54-.685-3.074-1.38-4.62-2.053l-4.698-2.05-.635-5.086c-1.752-14.04 2.566-27.897 11.664-37.728 1.852-2 3.932-3.81 6.19-5.405l-.23-.1-.438-5.31c-1.313-15.828 8.72-29.44 20.295-39.02 2.13-1.764 4.347-3.44 6.623-4.985l-.91-2.148c-4.49-10.608-2.336-21.785 3.01-29.815 5.35-8.03 13.357-13.657 21.92-16.79l.232-.086.236-.073c16.656-5.078 32.616-1.007 47.756 3.03 15.14 4.036 29.842 8.22 45.14 6.923 9.286 15.502 8.095 12.523 10.49 17.176l-8.966.76c-19.417 1.647-36.48-3.515-51.3-7.467-14.71-3.92-26.832-6.456-37.616-3.264-5.132 1.933-10.21 5.715-12.908 9.77-2.15 3.226-3.06 6.18-2.338 9.75 21.768 9.268 38.374 19.347 57.04 24.798 19.682 5.746 42.49 7.06 79.325-3.035 5.858-2.842 11.615-7.678 15.014-12.946 3.503-5.427 4.637-10.646 2.87-16-6.415-19.43-15.202-36.684-33.028-48.515-40.155-16.703-65.958-16.832-101.275-13.336-.627-5.215-.437-10.644.022-18.09 2.066-15.153 8.845-33.844 16.745-55.096 9.792-26.342 21.692-55.157 30.416-78.892-2.042-19.79-7.618-30.87-15.044-37.3-7.295-6.315-17.56-9.054-30.932-9.564zm-14.53 290.698c-4.52 1.1-10.952 3.76-16.513 8.363-6.763 5.6-11.67 12.988-13.268 18.99 24.578 11.48 43.09 22.944 74.63 33.086l66.92-3.794c11.996-4.2 19.78-8.523 24.07-12.197 4.42-3.79 5.292-6.294 5.45-8.77.265-4.15-3.83-11.11-9.88-18.43-37.514 9.835-63.92 8.562-86.034 2.105-16.627-4.855-30.524-12.225-45.375-19.353zm-25.398 49.41c-6.38.195-11.287 2.923-15.2 7.15-4.27 4.616-6.853 11.327-7.09 18.49 23.313 10.374 45.08 21.135 74.69 30.407l56.54-1.095c21.862-.903 27.79-9.79 28.918-17.854.6-4.28-.493-8.504-2.71-11.72l-67.27 3.815-1.57-.496c-28.61-9.035-47.056-19.095-66.265-28.698h-.044zm-9.96 50.937c-6.14 3.332-12.053 6.753-16.258 10.452-4.005 3.523-6.404 6.67-7.237 10.69 17.396 8.825 33.933 15.363 57.386 24.162l46.51 1.596c8.015-3.427 12.8-6.69 15.08-9.11 2.44-2.59 2.637-3.797 2.603-5.873-.035-2.12-1.344-5.413-3-9.437l-35.403.685-1.385-.427c-22.878-7.07-41.16-14.99-58.295-22.74z" fill="#75d406" fill-opacity="1" stroke="#000000" stroke-opacity="1" stroke-width="4" filter="url(#shadow-1)"></path></g></svg>